<?xml version="1.0" encoding="UTF-8"?>
<svg width="700pt" height="700pt" version="1.1" viewBox="0 0 700 700" xmlns="http://www.w3.org/2000/svg" xmlns:xlink="http://www.w3.org/1999/xlink">
 <defs>
  <symbol id="g" overflow="visible">
   <path d="m24.078-1.4375c-1.2422 0.64844-2.5391 1.1328-3.8906 1.4531-1.3438 0.33203-2.7461 0.5-4.2031 0.5-4.3672 0-7.8242-1.2188-10.375-3.6562-2.543-2.4453-3.8125-5.7578-3.8125-9.9375 0-4.1875 1.2695-7.5 3.8125-9.9375 2.5508-2.4375 6.0078-3.6562 10.375-3.6562 1.457 0 2.8594 0.16797 4.2031 0.5 1.3516 0.32422 2.6484 0.80859 3.8906 1.4531v5.4219c-1.25-0.85156-2.4844-1.4766-3.7031-1.875-1.2188-0.40625-2.5-0.60938-3.8438-0.60938-2.4062 0-4.3047 0.77734-5.6875 2.3281-1.375 1.543-2.0625 3.668-2.0625 6.375 0 2.7109 0.6875 4.8359 2.0625 6.375 1.3828 1.543 3.2812 2.3125 5.6875 2.3125 1.3438 0 2.625-0.19531 3.8438-0.59375 1.2188-0.39453 2.4531-1.0195 3.7031-1.875z"/>
  </symbol>
  <symbol id="d" overflow="visible">
   <path d="m17.625-14.297c-0.55469-0.25781-1.1055-0.45312-1.6562-0.57812-0.54297-0.125-1.0859-0.1875-1.625-0.1875-1.6172 0-2.8594 0.52344-3.7344 1.5625-0.875 1.0312-1.3125 2.5156-1.3125 4.4531v9.0469h-6.2812v-19.656h6.2812v3.2344c0.8125-1.2891 1.7383-2.2266 2.7812-2.8125 1.0508-0.59375 2.3047-0.89062 3.7656-0.89062 0.20703 0 0.42969 0.011719 0.67188 0.03125 0.25 0.011719 0.60938 0.046875 1.0781 0.10938z"/>
  </symbol>
  <symbol id="a" overflow="visible">
   <path d="m22.641-9.875v1.7812h-14.688c0.14453 1.4805 0.67578 2.5898 1.5938 3.3281 0.91406 0.73047 2.1914 1.0938 3.8281 1.0938 1.3203 0 2.6758-0.19141 4.0625-0.57812 1.3828-0.39453 2.8047-0.98828 4.2656-1.7812v4.8438c-1.4805 0.5625-2.9648 0.98438-4.4531 1.2656-1.4922 0.28906-2.9766 0.4375-4.4531 0.4375-3.5625 0-6.3281-0.89844-8.2969-2.7031-1.9688-1.8125-2.9531-4.3516-2.9531-7.625 0-3.1953 0.96875-5.7109 2.9062-7.5469 1.9375-1.8438 4.5977-2.7656 7.9844-2.7656 3.0938 0 5.5664 0.93359 7.4219 2.7969 1.8516 1.8555 2.7812 4.3398 2.7812 7.4531zm-6.4688-2.0938c0-1.1875-0.35156-2.1445-1.0469-2.875-0.6875-0.73828-1.5938-1.1094-2.7188-1.1094-1.2188 0-2.2109 0.34375-2.9688 1.0312-0.76172 0.6875-1.2344 1.6719-1.4219 2.9531z"/>
  </symbol>
  <symbol id="l" overflow="visible">
   <path d="m11.828-8.8438c-1.3125 0-2.3047 0.22656-2.9688 0.67188-0.65625 0.4375-0.98438 1.0898-0.98438 1.9531 0 0.80469 0.26562 1.4297 0.79688 1.875 0.53125 0.44922 1.2695 0.67188 2.2188 0.67188 1.1875 0 2.1797-0.42188 2.9844-1.2656 0.8125-0.85156 1.2188-1.9141 1.2188-3.1875v-0.71875zm9.5938-2.375v11.219h-6.3281v-2.9062c-0.84375 1.1875-1.793 2.0586-2.8438 2.6094-1.0547 0.53906-2.3359 0.8125-3.8438 0.8125-2.0312 0-3.6836-0.59375-4.9531-1.7812-1.2734-1.1875-1.9062-2.7266-1.9062-4.625 0-2.3125 0.78906-4.0039 2.375-5.0781 1.582-1.0703 4.0703-1.6094 7.4688-1.6094h3.7031v-0.5c0-0.98828-0.39844-1.7109-1.1875-2.1719-0.78125-0.46875-2-0.70312-3.6562-0.70312-1.3438 0-2.6016 0.13672-3.7656 0.40625-1.1562 0.27344-2.2305 0.67188-3.2188 1.2031v-4.7812c1.3438-0.33203 2.6914-0.58203 4.0469-0.75 1.3633-0.16406 2.7227-0.25 4.0781-0.25 3.5391 0 6.0977 0.69922 7.6719 2.0938 1.5703 1.3984 2.3594 3.668 2.3594 6.8125z"/>
  </symbol>
  <symbol id="c" overflow="visible">
   <path d="m9.875-25.234v5.5781h6.4844v4.5h-6.4844v8.3281c0 0.91797 0.17969 1.5391 0.54688 1.8594 0.36328 0.3125 1.082 0.46875 2.1562 0.46875h3.2344v4.5h-5.3906c-2.4805 0-4.2422-0.51562-5.2812-1.5469-1.0312-1.0391-1.5469-2.8008-1.5469-5.2812v-8.3281h-3.125v-4.5h3.125v-5.5781z"/>
  </symbol>
  <symbol id="k" overflow="visible">
   <path d="m16.391-16.781v-10.516h6.3125v27.297h-6.3125v-2.8438c-0.86719 1.1562-1.8203 2.0078-2.8594 2.5469-1.043 0.53906-2.2461 0.8125-3.6094 0.8125-2.4297 0-4.4219-0.96094-5.9844-2.8906-1.5547-1.9258-2.3281-4.4062-2.3281-7.4375s0.77344-5.5039 2.3281-7.4219c1.5625-1.9258 3.5547-2.8906 5.9844-2.8906 1.3516 0 2.5508 0.27344 3.5938 0.8125 1.0508 0.54297 2.0078 1.3867 2.875 2.5312zm-4.1406 12.734c1.3438 0 2.3672-0.48828 3.0781-1.4688 0.70703-0.98828 1.0625-2.4219 1.0625-4.2969 0-1.8633-0.35547-3.2852-1.0625-4.2656-0.71094-0.98828-1.7344-1.4844-3.0781-1.4844-1.3359 0-2.3555 0.49609-3.0625 1.4844-0.71094 0.98047-1.0625 2.4023-1.0625 4.2656 0 1.875 0.35156 3.3086 1.0625 4.2969 0.70703 0.98047 1.7266 1.4688 3.0625 1.4688z"/>
  </symbol>
  <symbol id="j" overflow="visible">
   <path d="m13.484-4.0469c1.3438 0 2.3672-0.48828 3.0781-1.4688 0.70703-0.98828 1.0625-2.4219 1.0625-4.2969 0-1.8633-0.35547-3.2852-1.0625-4.2656-0.71094-0.98828-1.7344-1.4844-3.0781-1.4844-1.3555 0-2.3906 0.49609-3.1094 1.4844-0.71875 0.99219-1.0781 2.4141-1.0781 4.2656 0 1.8672 0.35938 3.293 1.0781 4.2812 0.71875 0.99219 1.7539 1.4844 3.1094 1.4844zm-4.1875-12.734c0.86328-1.1445 1.8203-1.9883 2.875-2.5312 1.0508-0.53906 2.2656-0.8125 3.6406-0.8125 2.4141 0 4.3984 0.96484 5.9531 2.8906 1.5625 1.918 2.3438 4.3906 2.3438 7.4219s-0.78125 5.5117-2.3438 7.4375c-1.5547 1.9297-3.5391 2.8906-5.9531 2.8906-1.375 0-2.5898-0.27344-3.6406-0.8125-1.0547-0.55078-2.0117-1.3984-2.875-2.5469v2.8438h-6.2812v-27.297h6.2812z"/>
  </symbol>
  <symbol id="i" overflow="visible">
   <path d="m0.4375-19.656h6.2812l5.2812 13.344 4.5-13.344h6.2812l-8.2656 21.516c-0.83594 2.1875-1.8047 3.7109-2.9062 4.5781-1.1055 0.875-2.5625 1.3125-4.375 1.3125h-3.6406v-4.125h1.9688c1.0625 0 1.832-0.17188 2.3125-0.51562 0.48828-0.33594 0.86719-0.9375 1.1406-1.8125l0.17188-0.54688z"/>
  </symbol>
  <symbol id="h" overflow="visible">
   <path d="m3.2969-26.203h6.7656v23.656c0 3.2578-0.89062 5.6953-2.6719 7.3125-1.7734 1.6133-4.4531 2.4219-8.0469 2.4219h-1.3594v-5.0938h1.0469c1.4062 0 2.4688-0.39844 3.1875-1.1875 0.71875-0.78125 1.0781-1.9297 1.0781-3.4531z"/>
  </symbol>
  <symbol id="e" overflow="visible">
   <path d="m22.781-11.969v11.969h-6.3281v-9.1562c0-1.6953-0.039063-2.8672-0.10938-3.5156-0.074219-0.64453-0.20312-1.1172-0.39062-1.4219-0.25-0.40625-0.58984-0.72266-1.0156-0.95312-0.41797-0.22656-0.89062-0.34375-1.4219-0.34375-1.3125 0-2.3438 0.50781-3.0938 1.5156-0.75 1.0117-1.125 2.4141-1.125 4.2031v9.6719h-6.2812v-19.656h6.2812v2.875c0.94531-1.1445 1.9531-1.9883 3.0156-2.5312 1.0703-0.53906 2.25-0.8125 3.5312-0.8125 2.2695 0 3.9922 0.69922 5.1719 2.0938 1.1758 1.3867 1.7656 3.4062 1.7656 6.0625z"/>
  </symbol>
  <symbol id="b" overflow="visible">
   <path d="m12.375-15.641c-1.3984 0-2.4609 0.5-3.1875 1.5-0.73047 1-1.0938 2.4453-1.0938 4.3281 0 1.8867 0.36328 3.3281 1.0938 4.3281 0.72656 1 1.7891 1.5 3.1875 1.5 1.3633 0 2.4062-0.5 3.125-1.5 0.72656-1 1.0938-2.4414 1.0938-4.3281 0-1.8828-0.36719-3.3281-1.0938-4.3281-0.71875-1-1.7617-1.5-3.125-1.5zm0-4.4844c3.375 0 6.0078 0.91406 7.9062 2.7344 1.9062 1.8242 2.8594 4.3516 2.8594 7.5781 0 3.2305-0.95312 5.7617-2.8594 7.5938-1.8984 1.8242-4.5312 2.7344-7.9062 2.7344-3.3984 0-6.0547-0.91016-7.9688-2.7344-1.9062-1.832-2.8594-4.3633-2.8594-7.5938 0-3.2266 0.95312-5.7539 2.8594-7.5781 1.9141-1.8203 4.5703-2.7344 7.9688-2.7344z"/>
  </symbol>
  <symbol id="f" overflow="visible">
   <path d="m2.8125-7.6562v-12h6.3125v1.9688c0 1.0625-0.007812 2.4023-0.015625 4.0156-0.011719 1.6055-0.015625 2.6797-0.015625 3.2188 0 1.5742 0.035156 2.7109 0.10938 3.4062 0.082031 0.69922 0.22656 1.2031 0.4375 1.5156 0.25 0.41797 0.58203 0.73438 1 0.95312 0.41406 0.21875 0.89453 0.32812 1.4375 0.32812 1.3008 0 2.3281-0.5 3.0781-1.5 0.75-1.0078 1.125-2.4102 1.125-4.2031v-9.7031h6.2812v19.656h-6.2812v-2.8438c-0.94922 1.1484-1.9531 1.9961-3.0156 2.5469-1.0547 0.53906-2.2148 0.8125-3.4844 0.8125-2.2734 0-4-0.69531-5.1875-2.0938-1.1875-1.3945-1.7812-3.4219-1.7812-6.0781z"/>
  </symbol>
  <symbol id="u" overflow="visible">
   <path d="m3.0156-27.297h6.2812v27.297h-6.2812z"/>
  </symbol>
  <symbol id="t" overflow="visible">
   <path d="m18.375-19.047v4.7812c-1.3438-0.5625-2.6484-0.98438-3.9062-1.2656-1.25-0.28125-2.4297-0.42188-3.5312-0.42188-1.1992 0-2.0898 0.15234-2.6719 0.45312-0.57422 0.29297-0.85938 0.75-0.85938 1.375 0 0.5 0.21875 0.88672 0.65625 1.1562 0.4375 0.27344 1.2227 0.46875 2.3594 0.59375l1.1094 0.15625c3.2188 0.41797 5.3789 1.0938 6.4844 2.0312 1.1133 0.92969 1.6719 2.3906 1.6719 4.3906 0 2.0938-0.77344 3.6719-2.3125 4.7344-1.543 1.0547-3.8516 1.5781-6.9219 1.5781-1.293 0-2.6328-0.10547-4.0156-0.3125-1.3867-0.20703-2.8125-0.51562-4.2812-0.92188v-4.7812c1.25 0.61719 2.5312 1.0742 3.8438 1.375 1.3203 0.30469 2.6602 0.45312 4.0156 0.45312 1.2266 0 2.1484-0.16406 2.7656-0.5 0.625-0.34375 0.9375-0.84766 0.9375-1.5156 0-0.5625-0.21484-0.97656-0.64062-1.25-0.42969-0.28125-1.2773-0.49219-2.5469-0.64062l-1.1094-0.14062c-2.793-0.35156-4.75-1.0039-5.875-1.9531-1.125-0.94531-1.6875-2.3828-1.6875-4.3125 0-2.082 0.71094-3.625 2.1406-4.625 1.4258-1.0078 3.6133-1.5156 6.5625-1.5156 1.1562 0 2.3672 0.089844 3.6406 0.26562 1.2812 0.17969 2.6719 0.44922 4.1719 0.8125z"/>
  </symbol>
  <symbol id="s" overflow="visible">
   <path d="m15.953-27.297v4.1094h-3.4844c-0.88672 0-1.5078 0.16406-1.8594 0.48438-0.34375 0.32422-0.51562 0.88672-0.51562 1.6875v1.3594h5.3594v4.5h-5.3594v15.156h-6.2812v-15.156h-3.125v-4.5h3.125v-1.3594c0-2.1445 0.59375-3.7266 1.7812-4.75 1.1953-1.0195 3.0469-1.5312 5.5469-1.5312z"/>
  </symbol>
  <symbol id="r" overflow="visible">
   <path d="m21.234-16.391c0.78906-1.2188 1.7344-2.1445 2.8281-2.7812 1.0938-0.63281 2.2969-0.95312 3.6094-0.95312 2.2578 0 3.9766 0.69922 5.1562 2.0938 1.1875 1.3867 1.7812 3.4062 1.7812 6.0625v11.969h-6.3281v-10.25c0.007812-0.14453 0.019531-0.30078 0.03125-0.46875 0.007812-0.16406 0.015625-0.39844 0.015625-0.70312 0-1.3945-0.21094-2.4062-0.625-3.0312-0.40625-0.625-1.0703-0.9375-1.9844-0.9375-1.1875 0-2.1094 0.49609-2.7656 1.4844-0.64844 0.98047-0.98047 2.3984-1 4.25v9.6562h-6.3125v-10.25c0-2.1758-0.1875-3.5781-0.5625-4.2031s-1.043-0.9375-2-0.9375c-1.2109 0-2.1406 0.49609-2.7969 1.4844-0.65625 0.99219-0.98438 2.4023-0.98438 4.2344v9.6719h-6.3125v-19.656h6.3125v2.875c0.76953-1.1016 1.6562-1.9375 2.6562-2.5s2.1016-0.84375 3.3125-0.84375c1.3516 0 2.5508 0.32812 3.5938 0.98438 1.0391 0.65625 1.832 1.5742 2.375 2.75z"/>
  </symbol>
  <symbol id="q" overflow="visible">
   <path d="m22.781-11.969v11.969h-6.3281v-9.125c0-1.7188-0.039063-2.8984-0.10938-3.5469-0.074219-0.64453-0.20312-1.1172-0.39062-1.4219-0.25-0.40625-0.58984-0.72266-1.0156-0.95312-0.41797-0.22656-0.89062-0.34375-1.4219-0.34375-1.3125 0-2.3438 0.50781-3.0938 1.5156-0.75 1.0117-1.125 2.4141-1.125 4.2031v9.6719h-6.2812v-27.297h6.2812v10.516c0.94531-1.1445 1.9531-1.9883 3.0156-2.5312 1.0703-0.53906 2.25-0.8125 3.5312-0.8125 2.2695 0 3.9922 0.69922 5.1719 2.0938 1.1758 1.3867 1.7656 3.4062 1.7656 6.0625z"/>
  </symbol>
  <symbol id="p" overflow="visible">
   <path d="m3.2969-26.203h7.5469l9.5312 17.969v-17.969h6.4062v26.203h-7.5469l-9.5312-17.969v17.969h-6.4062z"/>
  </symbol>
  <symbol id="o" overflow="visible">
   <path d="m3.2969-26.203h11.219c3.332 0 5.8906 0.74219 7.6719 2.2188 1.7812 1.4805 2.6719 3.5898 2.6719 6.3281 0 2.75-0.89062 4.8672-2.6719 6.3438-1.7812 1.4805-4.3398 2.2188-7.6719 2.2188h-4.4531v9.0938h-6.7656zm6.7656 4.9062v7.3125h3.7344c1.3008 0 2.3125-0.31641 3.0312-0.95312 0.71875-0.63281 1.0781-1.5391 1.0781-2.7188 0-1.1641-0.35938-2.0625-1.0781-2.6875-0.71875-0.63281-1.7305-0.95312-3.0312-0.95312z"/>
  </symbol>
  <symbol id="n" overflow="visible">
   <path d="m3.0156-19.656h6.2812v19.312c0 2.625-0.63281 4.6289-1.8906 6.0156-1.2617 1.3828-3.0938 2.0781-5.5 2.0781h-3.0938v-4.125h1.0781c1.1953 0 2.0156-0.27344 2.4531-0.8125 0.44531-0.53125 0.67188-1.5859 0.67188-3.1562zm0-7.6406h6.2812v5.1094h-6.2812z"/>
  </symbol>
  <symbol id="m" overflow="visible">
   <path d="m18.906-19.047v5.125c-0.85547-0.58203-1.7148-1.0156-2.5781-1.2969-0.86719-0.28125-1.7578-0.42188-2.6719-0.42188-1.7617 0-3.1328 0.51562-4.1094 1.5469-0.96875 1.0234-1.4531 2.4492-1.4531 4.2812 0 1.8438 0.48438 3.2773 1.4531 4.2969 0.97656 1.0234 2.3477 1.5312 4.1094 1.5312 0.97656 0 1.9102-0.14453 2.7969-0.4375 0.88281-0.28906 1.7031-0.72266 2.4531-1.2969v5.1406c-0.99219 0.36719-1.9922 0.63281-3 0.8125-1.0117 0.1875-2.0273 0.28125-3.0469 0.28125-3.543 0-6.3125-0.91016-8.3125-2.7344-2-1.8203-3-4.3516-3-7.5938 0-3.2383 1-5.7656 3-7.5781 2-1.8203 4.7695-2.7344 8.3125-2.7344 1.0312 0 2.0469 0.09375 3.0469 0.28125 1 0.17969 2 0.44531 3 0.79688z"/>
  </symbol>
 </defs>
 <g>
  <path d="m486.23 104.23h-93.453v-7.9062c0-11.5-9.3438-20.848-20.848-20.848h-43.852c-11.5 0-20.848 9.3438-20.848 20.848v7.9062h-93.453c-11.5 0-20.848 9.3438-20.848 20.848v22.285c0 6.4688 2.875 11.5 7.1875 15.816-0.71875 2.1562-0.71875 4.3125-0.71875 6.4688l21.566 296.89c0.71875 10.781 10.062 19.41 20.848 19.41h217.1c10.781 0 20.129-8.625 20.848-19.41l20.848-296.89c0-2.1562-0.71875-4.3125-0.71875-6.4688 4.3125-3.5938 7.1875-9.3438 7.1875-15.816v-22.285c0.003907-11.5-9.3438-20.848-20.844-20.848zm-158.15-7.1875h43.852l0.71875 7.1875h-43.852zm157.43 28.754 0.71875 20.848h-51.758-15.816-40.258-52.477-51.758-39.539-9.3438-11.5c0-7.1875 0-13.66-0.71875-20.848h272.45zm-26.598 337.87h-216.38l-22.285-296.18h259.52z"/>
  <path d="m287.1 437.79h0.71875c5.75-0.71875 10.062-5.75 10.062-11.5l-18.691-232.91c-0.71875-5.75-5.75-10.062-11.5-10.062-5.75 0.71875-10.062 5.75-10.062 11.5l18.691 232.91c0.71875 5.75 5.75 10.062 10.781 10.062z"/>
  <path d="m352.52 437.79c5.75 0 10.781-5.0312 10.781-10.781l0.003906-233.64c0-5.75-5.0312-10.781-10.781-10.781s-10.781 5.0312-10.781 10.781v233.63c-0.003906 5.7539 5.0273 10.785 10.777 10.785z"/>
  <path d="m412.18 437.79h0.71875c5.75 0 10.062-4.3125 10.781-10.062l18.691-232.91c0.71875-5.75-3.5938-10.781-10.062-11.5-5.75 0-10.781 3.5938-11.5 10.062l-18.691 232.91c-0.003906 5.75 4.3086 10.781 10.062 11.5z"/>
  <use x="70" y="667.832031" xlink:href="#g"/>
  <use x="96.378906" y="667.832031" xlink:href="#d"/>
  <use x="114.105469" y="667.832031" xlink:href="#a"/>
  <use x="138.480469" y="667.832031" xlink:href="#l"/>
  <use x="162.738281" y="667.832031" xlink:href="#c"/>
  <use x="179.917969" y="667.832031" xlink:href="#a"/>
  <use x="204.296875" y="667.832031" xlink:href="#k"/>
  <use x="242.539062" y="667.832031" xlink:href="#j"/>
  <use x="268.269531" y="667.832031" xlink:href="#i"/>
  <use x="304.210938" y="667.832031" xlink:href="#h"/>
  <use x="317.585938" y="667.832031" xlink:href="#a"/>
  <use x="341.964844" y="667.832031" xlink:href="#e"/>
  <use x="380.066406" y="667.832031" xlink:href="#g"/>
  <use x="406.445312" y="667.832031" xlink:href="#b"/>
  <use x="431.136719" y="667.832031" xlink:href="#f"/>
  <use x="456.726562" y="667.832031" xlink:href="#u"/>
  <use x="469.046875" y="667.832031" xlink:href="#t"/>
  <use x="490.441406" y="667.832031" xlink:href="#b"/>
  <use x="515.132812" y="667.832031" xlink:href="#e"/>
  <use x="70" y="703.773438" xlink:href="#s"/>
  <use x="85.636719" y="703.773438" xlink:href="#d"/>
  <use x="103.363281" y="703.773438" xlink:href="#b"/>
  <use x="128.058594" y="703.773438" xlink:href="#r"/>
  <use x="178.023438" y="703.773438" xlink:href="#c"/>
  <use x="195.207031" y="703.773438" xlink:href="#q"/>
  <use x="220.792969" y="703.773438" xlink:href="#a"/>
  <use x="257.683594" y="703.773438" xlink:href="#p"/>
  <use x="287.765625" y="703.773438" xlink:href="#b"/>
  <use x="312.460937" y="703.773438" xlink:href="#f"/>
  <use x="338.050781" y="703.773438" xlink:href="#e"/>
  <use x="376.152344" y="703.773438" xlink:href="#o"/>
  <use x="402.496094" y="703.773438" xlink:href="#d"/>
  <use x="420.222656" y="703.773438" xlink:href="#b"/>
  <use x="444.914062" y="703.773438" xlink:href="#n"/>
  <use x="457.234375" y="703.773438" xlink:href="#a"/>
  <use x="481.613281" y="703.773438" xlink:href="#m"/>
  <use x="502.917969" y="703.773438" xlink:href="#c"/>
 </g>
</svg>
