<?xml version="1.0" encoding="utf-8"?>
<!-- Generator: Adobe Illustrator 26.3.1, SVG Export Plug-In . SVG Version: 6.00 Build 0)  -->
<svg version="1.1" id="Layer_1" xmlns="http://www.w3.org/2000/svg" xmlns:xlink="http://www.w3.org/1999/xlink" x="0px" y="0px"
	 viewBox="0 0 406 271" style="enable-background:new 0 0 406 271;" xml:space="preserve">
<style type="text/css">
	.st0{fill:#BC9C68;}
</style>
<g>
	<path class="st0" d="M235.6,225.9c0.1,0.2,0.3,0.5,0.3,0.4c0.5,0,1.5-0.2,1.5-0.2l1-0.5l2.8-1.1c0,0,7.1-3.4,7.1-3.4l1.2-0.6
		l0.6-0.3l0.8-0.5l1.2-0.8l1.5-0.8l1.9-1.2l3.4-2.3l1.6-1.3l2.3-1.7l2.1-1.6l1-0.7l1.4-1.3l1.5-1.5l2.3-2.5l2.7-2.7l3.2-3.6l1.7-2.3
		l0.6-0.8l1.9-2.3l3.6-5.2l1-1.7l2.5-4.9l1.4-2.7l2.3-4.8l1.3-2.9l1.4-4.5c0,0,1.6-5.9,2.5-9c0.1-0.3,0.1-0.6-0.1-1
		c-0.5-0.7-0.9-1.6-1.4-2.4c-0.3-0.4-0.6-0.8-0.8-1.2c-0.3-0.3-0.8-1.2-1.1-1.4c-0.3-0.3-0.6-0.6-0.9-0.8c-0.8-0.7-1.4-1.4-2.1-1.9
		c-0.3-0.2-0.6-0.4-0.8-0.6c-2-1.6-4-2.7-6.3-3.8c-1-0.4-1.9-0.8-2.9-1.1c-0.7-0.3-1.8-0.5-2.5-0.6c-0.4-0.1-0.8-0.1-1.1,0.1
		c-0.3,0.2-0.3,0.7-0.4,1.2c-0.1,1.2-0.2,2.6-0.3,3.8c-0.1,1.3-0.2,2.5-0.3,3.8c-0.1,1.2-0.2,2.3-0.3,3.4c-0.2,1.6-0.4,3-0.7,4.5
		c-0.5,2.8-1.2,5.6-1.7,8.4c-0.1,0.8-0.3,1.6-0.6,2.3c-0.5,1.2-0.9,2.4-1.1,3.7c-0.5,2.7-1.5,5.2-2.4,7.7c-0.7,2.1-1.5,4.1-2.7,6
		c-0.1,0.1-0.1,0.3-0.2,0.4c-0.6,1.3-1.1,2.6-1.7,3.9c-0.4,0.8-0.9,1.6-1.3,2.4c-0.5,1-1,2-1.6,3c-1,1.6-2,3-2.8,4.6
		c-0.6,1.1-1.3,2.1-2,3.2c-0.2,0.3-0.4,0.5-0.5,0.8c-0.6,0.8-1.1,1.7-1.7,2.6c-1.2,1.6-2.5,3.1-3.8,4.7c-0.8,1-1.7,1.8-2.6,2.7
		c-0.8,0.8-1.6,1.7-2.3,2.5c-0.1,0.2-0.4,0.3-0.6,0.5c-0.5,0.4-1,0.8-1.4,1.2c-1,1-2.1,2-3.2,2.8c-0.5,0.3-1,0.7-1.5,1.1
		C238.6,224.2,237.2,225.1,235.6,225.9z"/>
	<path class="st0" d="M298.8,150.2c0.1,0,0.1-0.1,0.1-0.2c0-0.3,0.1-0.6,0.1-0.6l0.7-6.2l0.4-5.8v-5.7v-0.9l-0.6-6.5
		c0,0-0.8-5.8-1.4-8.9c-0.2-1-0.9-1.6-1.7-2c-0.3-0.1-0.6-0.3-0.9-0.4c-0.6-0.2-1.4-0.5-1.9-0.6c-1.5-0.4-2.8-0.8-4.3-1.1
		c-1.7-0.3-3.5-0.5-5.3-0.6c-1.5-0.1-2.9-0.2-4.4-0.2c-1.2,0-1.9,0-3,0c-0.6,0-1.3,0-1.6,0.4c-0.3,0.4-0.1,1.1,0,1.7
		c0.2,1.4,0.5,2.1,0.7,3.6c0.7,4.1,1.4,8.3,1.6,12.6c0.1,1.9,0.2,3.8,0.3,5.7c0,0.5,0,0.9,0,1.4c0,0.3,0.1,0.7,0.3,0.9
		c0.2,0.3,0.5,0.3,0.7,0.4c0.4,0.1,0.7,0.1,1,0.3c0.4,0.1,1,0.3,1.5,0.4c1.7,0.5,3.5,1.2,5.1,1.8c1.2,0.5,2.3,1.2,3.4,1.7
		c0.1,0.1,0.3,0.1,0.4,0.3c0.6,0.5,1.3,1,1.9,1.4c1.5,1.1,3.1,2.2,4.3,3.8c0.2,0.3,0.5,0.6,0.8,0.8c0.5,0.4,1.2,1.9,1.8,2.5
		C298.6,150.2,298.8,150.2,298.8,150.2z"/>
	<path class="st0" d="M255.4,81.2c0.6,0,1.1-0.1,1.6-0.1c0.3,0,0.6-0.1,0.8-0.4c0.1-0.3-0.1-0.7-0.2-0.8c-0.1-0.3-1.2-2.3-1.2-2.3
		l-1.1-1.7l-4.5-6.6l-1-1.1l-0.9-1.2l-1.5-1.7l-3.7-4l-1.6-1.6l-5.7-5.3l-4.7-3.6l-1.7-0.9l-5.5-3.4l-3.8-2.1l-0.7-0.3l-3.1-1.2
		l-4.7-1.7l-0.4-0.1l-1.5-0.4l-0.4-0.1l-1.3-0.3l-2.8-0.5l-1.3-0.1l-2.5-0.5l-3-0.2l-1-0.1h-1.9l-3.1,0.1l-3,0.3l-2.4,0.1l-2.1,0.3
		l-2.1,0.5l-1.6,0.5l-2.7,0.5h-0.6l-2.5,0.9l-1.5,0.4l-0.9,0.5l-2.1,0.6l-1,0.6l-1.3,0.5l-3.2,1.4l-4.1,1.6l-1.4,0.6l-2.8,1.6
		l-2.5,1.6l-2.3,1.2l-0.8,0.5l-2.5,1.4l-0.4,0.3l-2.9,2.3l-2.4,1.6l-0.5,0.3l-2.7,2.1l-1,0.8c0,0-1.4,1.2-1.5,1.4l1-0.3
		c0,0,1.9-0.7,1.9-0.6c0.1,0,0.4,0.1,0.4,0.1l2.7-1.1h0.4l2.9-1.2c0,0,1.6-0.5,1.6-0.5c0,0.1,1.6-0.6,1.6-0.6l2.2-0.8l5.2-2h0.5
		l2.7-1l2.1-0.8l0.3,0.2c0,0,4.1,0.1,4.1,0.1l2.6,0.2l0.1,0.1l5.3,0.5l0.1-0.1l7.3,0.4l0.1,0.2l2.6,2.2h0.2l2.7,2.6l0.3-0.1l3.6-0.1
		l0.2-0.1l9.2,0.5l0.1,0.2l4.1,2.3h0.2l7.2,3.5l0.1,0.4l4.1-1.6l6,2l1,1.7l2.2,0.1l2.1,2.4h0.2l1.7,1.9v0.1h0.3l4.7,1.1l1.7,2.7
		l4.4,1.6c0,0,4.7,1.2,7.1,1.5C251.2,81.4,253.8,81.3,255.4,81.2z"/>
	<path class="st0" d="M296.2,108.9c-0.1-0.7-0.6-2.1-0.6-2.1l-0.3-0.8l-0.3-0.9l-0.8-2.3l-0.7-2l-2.3-5l-1-2.5l-1.3-2.8l-1.6-2.5
		l-0.3-0.7l-1-2.1l-1-1.6l-0.4-0.5l-6.5-8.9c0,0-0.6-0.8-1-1.1c-0.1-0.2-0.2-0.3-0.4-0.3c0,0,0,0-0.1,0c0,0-2,3.3-2.8,4.2
		c-0.8,0.9-2.5,2.5-2.5,2.5s-1.4,1.2-1.7,1.4c-0.3,0.2-1.4,0.9-1.4,0.9l-1.5,0.8c0,0-1.1,0.5-1.3,0.6c-0.2,0.1-0.4,0.1-0.5,0.3
		c-0.1,0.1-0.1,0.3-0.1,0.5c0.1,0.2,0.1,0.4,0.2,0.6c0.6,1.2,1.2,2.5,1.8,3.8c1,1.8,1.6,3.8,2.5,5.7c0.3,0.6,0.5,1.3,0.8,1.9
		c0.6,1.7,1.1,3.4,1.6,5.1c0.2,0.8,0.5,1.5,0.7,2.3c0.2,0.8,0.4,1.5,0.6,2.3c0.1,0.5,0.5,0.7,1,0.7c0.5,0,1,0,1.5-0.1
		c1.7-0.1,3.5-0.1,5.2-0.1c0.5,0,4,0.3,4,0.3s1.2,0.1,1.9,0.3c1.4,0.3,2.7,0.5,4,0.8c1.1,0.3,2.3,0.6,3.3,1.1c0.5,0.3,1,0.4,1.6,0.5
		c0.2,0.1,0.5,0.1,0.5,0.1C296.2,109.2,296.3,109,296.2,108.9z"/>
	<path class="st0" d="M273.3,69.8c-0.1-0.3-0.5-1-0.5-1l-0.3-0.6l-1-1.1l-0.6-0.9l-1.2-1.2c0,0-0.3-0.2-0.4-0.3
		c-2.1-1.7-6.3-5.1-6.3-5.1l-1.2-0.9l-2.1-1.9l-10.9-6.5l-8.5-4.1c0,0-4.5-1.8-4.5-1.7l-1.7-0.6l-5.6-1.9l-3.9-1l-3.8-0.8l-0.6-0.1
		l-0.3,0.3l0.1,0.2c0,0,0.4,0.2,0.6,0.3c1.2,0.5,2.4,0.9,3.6,1.4c0.8,0.3,1.5,0.7,2.3,1c0.6,0.2,1,0.4,1.6,0.6
		c1.8,1,3.6,2.1,5.4,3.2c1.1,0.6,2.1,1.4,3,2.3c0.7,0.6,1.4,1.3,2.3,1.7c0.4,0.2,0.7,0.5,1,0.8c0.2,0.1,0.4,0.3,0.6,0.5
		c1,0.8,2.2,1.6,3.2,2.7c1,1.1,2.1,2.1,3.1,3.2c1,1,2,1.9,2.8,3.1c0.7,0.9,1.4,1.8,2.3,2.7c1.6,1.6,2.8,3.4,4.2,5.1
		c0.2,0.2,0.3,0.5,0.5,0.7c0.9,1.4,1.7,3,2.8,4.3c0.8,0.9,1.5,1.9,2,3c0.3,0.6,0.8,1.3,1.2,1.9c0.3,0.3,0.6,0.5,0.8,0.5
		c0.2,0,0.6-0.2,0.6-0.2l0.8-0.3c0,0,1-0.5,1.4-0.6c0.3-0.2,1-0.5,1.2-0.8c0.3-0.2,1.3-0.9,1.9-1.5c0.6-0.5,1.7-1.9,1.7-1.9l0.8-1.1
		l1.4-2.4C273.1,70.6,273.4,70,273.3,69.8z"/>
	<path class="st0" d="M268.8,106c-0.6-1.8-1-3.5-1.7-5.3c-0.5-1.5-0.9-3-1.6-4.3c-0.4-0.8-0.6-1.7-0.9-2.7c-0.2-0.5-0.4-0.8-0.5-1.3
		c-0.8-2.3-1.9-4.1-3-6.3c-0.1-0.1-0.1-0.2-0.2-0.4c-0.1-0.2-0.2-0.4-0.5-0.5c-0.3-0.1-0.5-0.1-1,0c-0.9,0.1-2.1,0.2-2.6,0.2
		c-0.5,0-2.3,0.1-3.7,0.3l-0.3-0.1h-0.9h-0.8l-4.7-0.6c-1.7-0.3-5.6-1.2-5.6-1.2l-2.8-1l-3.6-1.2l-0.3,0.1l-5.5-0.5l-0.2,0.1
		l-3.1-2.4h-0.3l-1.9-1.7l-0.1-0.4l-2.1-0.3l-0.2,0.1l-1.7-0.6l-0.2-0.2l-4.1,0.3l-3.7-1.5l-12.8,0.6l-0.2-0.1l-2.4,0.2l-0.3,0.2
		l-6.3,0.5l-0.2-0.1l-8.9,5.2l-0.1,0.4l-0.4,0.4l-0.2-0.1l-4.5-0.4l-0.3,0.1l-8,0.1l-0.2-0.1l-2.3-0.1l-0.7-0.4l-8.4,6.5v0.2
		l-2.9,2.3l-3.3-1.6l-0.2,0.1l-1.2-0.4c0,0-6,1.5-6,1.6c0.1,0-5.6-0.9-5.6-0.9l-0.4-0.3l-1,1.1l-2.3,1.1l-0.1,0.2l-4.5,3.4l-6.3,4.6
		l-7.1,5.3l-3.2,2.3l-0.2,1.4l-1.4,3.1l-0.6,2.7l-0.9,5.4l-0.5,2.4l-0.2,2.8l-0.8,5.9l-0.3,12.9l0.3,0.8l0.2,3.6
		c0,0,0.1,0.6,0.2,0.6l15.9-16.4l5.2-2.1l4.3-0.2l2.7-3l0.3-0.6l0.3,0.1l7.1-0.8l0.3-0.2h2.7l0.4,0.1l0.8-1.2l3.2-2l3.4-2.3l9.6,0.1
		l0.1,0.2l3.8,0.4l2.9-0.6l5.4-5.5h0.1l4.3-4.1l6.4-0.8l0.3-0.2l0.3,0.3l3.3,1.6l0.3-0.2l2.9-0.4l0.1-0.2l2.8-0.5l0.3-0.1l3,2.6
		l0.2-0.2l6.2-0.1l0.5-0.4l5,0.3l0.3,0.1l0.8-0.2l0.1-0.2l2-0.9h0.3l2.3-1l0.2-0.2l2.5-0.9l0.2-0.3l6.8-2.6l0.1-0.1l1.2-0.4l0.3-0.3
		l0.3,0.4l2,1h0.6l2.2,1.2l0.1-0.2l0.6-0.3h0.1l1.1-0.5l0.1-0.1l1.6-0.4l4.1,1l0.8-0.2l0.7,0.5l3,0.5l2.9,1.1l1.7-0.1l0.5,0.4
		l0.5-0.3c0,0,5.8-0.7,8.6-1c1.9-0.1,3.8-0.3,5.6-0.5c1-0.1,2.1-0.2,3.2-0.3C268.7,106.9,269,106.6,268.8,106z"/>
	<path class="st0" d="M273,135.4c0-0.4-0.1-0.6-0.1-1c-0.1-1.1-0.1-2.2-0.2-3.3c0-0.4-0.1-0.8-0.1-1.1c-0.1-1.4-0.1-2.7-0.3-4.1
		c-0.2-1.7-0.5-3.5-0.7-5.2c-0.2-1.4-0.5-2.7-0.7-4c-0.3-1.4-0.5-2.7-0.8-4.1c-0.3-1.4-0.6-1.6-2.1-1.4c-0.1,0-0.3,0-0.4,0.1
		c-0.5,0.1-1.3,0.2-1.8,0.3c-2.8,0.4-5.4,0.5-8.3,0.8l-8.1,2.8l-11.7-0.3l-1.3-0.4v0.2l-3.4,2.5l-0.5,0.1l-2.7,2.5l-0.1,0.4l-7,0.9
		l-6.4,4.9h-0.6l-3.4,2l-1.4,0.1l-1.4,1.1l-0.3-0.3l-6.5-0.5l-1.1,1.3v0.2l-5.6,6.2l-0.1,0.3h-0.2l-7.1,8.2l-2,0.1l-0.1,0.2l-5.9,1
		h-0.5l-0.1,0.3c-0.1,0-9.7,5.4-9.7,5.4L166,151l-0.9,0.3l-4.3-0.3l-4.3,4.7l-2.6,0.5l-1.5-0.1l-1.5,0.6l-0.9-0.1l0.1,0.2l-5.4,4.1
		l-0.5,0.1l-8.4,6.5l0.1,0.4l-5.2,12.5l0.2,0.5l-8.5,0.8l-2.8,2.4l-0.3,0.9l3.8,5.2l2.8,4.3l2.4,3.1l3.9,4.3c0,0,0,0.3,0.1,0.3
		c0.1,0.1,0.5,0.1,0.5,0.1s2.3,0.8,2.4,0.8l2.9,0.9l0.1,0.1l0.3-0.1l4.8,1.9h0.4l0.3,0.3h0.5c0.1,0,1.2,0.8,1.2,0.8l2-1.1h0.1
		l0.9-0.6l7.3,1.8l5.4-2.7l11.9-1.2l4.9-7.8c0.8-0.8,2.2-2.2,2.2-2.2h0.2l1.7-1.6c0-0.1,0-0.2,0-0.2l3-2.8l1.4-1.5l0.3-0.2
		c0.1,0,1.6-1.7,1.6-1.7l1.4-1.4l0.3-0.1l-0.3-1.2l1.4-5.1l2.7-0.8l0.1-0.1l0.8-0.2v-0.5l3.6-5.8l0.3-0.1l1.5-2.8l2.5-1.4l0.3-0.4
		l0.5,0.1c0,0,1.4-0.8,1.5-0.8h0.1l2.7-1.2l0.2-0.3l8.7-4l0.5-0.1l0.1-0.5l0.3-0.3l0.9-3l2.8-1.2l3.2-0.4l2.9-2l4.1,0.2l0.4,0.3
		l0.2-0.3l5.8-2.6v-0.8l1.4-2.7l2.8-0.8l0.1-0.2l3.9-0.8l1.5-1.7l0.2-0.1c0,0,0.9-0.8,0.9-0.9l2.7,0.4l0.1,0.1l1.5,0.2l0.9,0.1
		c0,0,4-1.8,5.6-2.5c0.7-0.3,1.4-0.5,2-0.6c0.9-0.3,1.8-0.6,2.7-1c0.5-0.1,0.9-0.3,1.4-0.4l1.8-0.3l2.1-0.4l1.3-0.1
		c0,0,0.6-0.1,0.8-0.1c0.2-0.1,0.6-0.1,0.9-0.3c0.3-0.3,0.3-0.5,0.3-0.8C273,135.9,273,135.7,273,135.4z"/>
	<path class="st0" d="M272.9,143.1c0-0.3,0.1-0.8-0.2-1.1s-0.6-0.3-0.8-0.3c-0.2,0-1.2,0.1-1.2,0.1L269,142c-0.2,0-0.4,0.1-0.6,0.1
		c-1,0.3-2,0.5-3,0.7c-1.1,0.3-2.3,0.6-3.3,1.1c-1.1,0.5-2.4,0.9-3.5,1.4c-0.4,0.2-4.1,2-5.8,2.8l-2.2,2.3l-0.1,0.5l-0.3-0.1
		l-1.4,0.1l-0.1,0.1l-4.5,1.5v0.5l-0.5,0.5v0.3l-2.1,3.7h-0.3l-0.1,0.4c0,0-0.4,0.7-0.9,1.5l-9.4,6H231l-1.4,1.2l-1,4l-0.9,0.9
		L224,185l0.5,1.6l-5.4,2.6h-0.9l-1,4.7L217,194l-1.4,4.3l0.1,0.3l-0.5,3.7l-0.2,0.3l0.2,0.3l-5.2,8.3l-0.4,0.1l-1.3,2l-0.1,0.4
		l-4.5,6.3l-4.7,2.8l0.3,0.4c0,0.1-0.3,1.9-0.3,1.9l0.4,0.7l-0.6,0.2l-3.4,2l-0.3-0.1l-5,3l-0.6,0.9c0,0.1,1.9,0.3,1.9,0.3l3.2,0.3
		l2.2,0.1l2.6,0.1l1.2,0.1l1.9,0.1l1.9-0.1l7-0.8l4.1-0.7l3.1-0.8l3.4-1l4.3-1.7l0.3-0.2l1.2-0.7c0,0,3.5-1.9,5.1-3
		c2.7-2.1,5.4-4.1,7.9-6.4c0.8-0.8,1.7-1.6,2.5-2.5c0.8-0.8,1.6-1.6,2.4-2.3c0.1-0.1,0.3-0.3,0.4-0.5c0.3-0.6,0.8-1.1,1.2-1.6
		c0.3-0.3,0.6-0.6,0.9-1.1c0.5-0.8,1.4-1.4,2-2.1c0.6-0.5,1.1-1.2,1.6-1.8c0.8-1.2,1.6-2.4,2.4-3.6c1-1.6,2.2-3.1,3.1-4.8
		c1-1.8,1.9-3.6,2.9-5.3c0.8-1.5,1.7-3,2.4-4.6c1.1-2.7,2.2-5.2,3.2-7.9c1.1-2.8,1.9-5.7,2.7-8.6c0.6-2.2,0.9-4.4,1.7-6.5
		c0.1-0.3,0.1-0.6,0.2-0.8c0.3-1.8,0.6-3.6,0.9-5.3c0.3-1.7,0.5-3.4,0.7-5.1c0.2-1.2,0.4-2.3,0.5-3.4c0.1-1.6,0.2-3.2,0.3-4.8
		c0-0.2,0-0.5,0-0.5S272.9,143.4,272.9,143.1z"/>
</g>
</svg>
