<?xml version="1.0" encoding="UTF-8"?>
<svg width="1200pt" height="1200pt" version="1.1" viewBox="0 0 1200 1200" xmlns="http://www.w3.org/2000/svg">
 <path d="m908.4 234h-169.2c-10.801-68.398-68.398-121.2-139.2-121.2s-129.6 52.801-139.2 121.2h-166.8c-32.398 0-58.801 26.398-58.801 58.801v60c0 30 21.602 54 50.398 57.602v585.6c0 43.199 34.801 78 78 78h476.4c43.199 0 78-34.801 78-78l0.003906-584.4c28.801-4.8008 50.398-28.801 50.398-57.602v-60c-1.1992-33.602-27.598-60-60-60zm-308.4-76.801c46.801 0 85.199 32.398 93.602 76.801h-188.4c9.6016-43.199 48-76.801 94.801-76.801zm272.4 840c0 18-14.398 33.602-33.602 33.602h-476.4c-18 0-33.602-14.398-33.602-33.602l0.003906-584.4h542.4v584.4zm50.402-644.4c0 8.3984-6 14.398-14.398 14.398h-614.4c-8.3984 0-14.398-6-14.398-14.398v-60c0-8.3984 6-14.398 14.398-14.398h613.2c8.3984 0 14.398 6 14.398 14.398l0.003906 60zm-494.4 562.8v-379.2c0-12 9.6016-21.602 21.602-21.602s21.602 9.6016 21.602 21.602v379.2c0 12-9.6016 21.602-21.602 21.602-12 1.1992-21.602-9.5977-21.602-21.598zm152.4 0v-379.2c0-12 9.6016-21.602 21.602-21.602s21.602 9.6016 21.602 21.602v379.2c0 12-9.6016 21.602-21.602 21.602-12.004 1.1992-21.602-9.5977-21.602-21.598zm152.4 0v-379.2c0-12 9.6016-21.602 21.602-21.602s21.602 9.6016 21.602 21.602v379.2c0 12-9.6016 21.602-21.602 21.602-10.801 1.1992-21.602-9.5977-21.602-21.598z"/>
</svg>
